<!-- Favicon SVG for КупитьКролика -->
<svg width="32" height="32" viewBox="0 0 32 32" xmlns="http://www.w3.org/2000/svg">
  <!-- Background circle -->
  <circle cx="16" cy="16" r="16" fill="#10b981"/>
  
  <!-- Rabbit -->
  <g transform="translate(6, 6)">
    <!-- Body -->
    <ellipse cx="10" cy="15" rx="6" ry="4" fill="white"/>
    
    <!-- Head -->
    <circle cx="10" cy="8" r="5" fill="white"/>
    
    <!-- Ears -->
    <ellipse cx="7.5" cy="4" rx="1.5" ry="4" fill="white" transform="rotate(-15 7.5 4)"/>
    <ellipse cx="12.5" cy="4" rx="1.5" ry="4" fill="white" transform="rotate(15 12.5 4)"/>
    
    <!-- Inner ears -->
    <ellipse cx="7.5" cy="4" rx="0.7" ry="2.5" fill="#f3f4f6" transform="rotate(-15 7.5 4)"/>
    <ellipse cx="12.5" cy="4" rx="0.7" ry="2.5" fill="#f3f4f6" transform="rotate(15 12.5 4)"/>
    
    <!-- Eyes -->
    <circle cx="8.5" cy="7.5" r="0.8" fill="#374151"/>
    <circle cx="11.5" cy="7.5" r="0.8" fill="#374151"/>
    
    <!-- Eye shine -->
    <circle cx="8.7" cy="7.2" r="0.3" fill="white"/>
    <circle cx="11.7" cy="7.2" r="0.3" fill="white"/>
    
    <!-- Nose -->
    <ellipse cx="10" cy="9" rx="0.4" ry="0.7" fill="#f59e0b"/>
    
    <!-- Mouth -->
    <path d="M 10 10 Q 9.5 11 9 10.5" stroke="#6b7280" stroke-width="0.5" fill="none"/>
    <path d="M 10 10 Q 10.5 11 11 10.5" stroke="#6b7280" stroke-width="0.5" fill="none"/>
    
    <!-- Tail -->
    <circle cx="4" cy="15" r="1.5" fill="white"/>
  </g>
</svg>